<svg xmlns="http://www.w3.org/2000/svg" xmlns:xlink="http://www.w3.org/1999/xlink" width="500" zoomAndPan="magnify" viewBox="0 0 375 374.999991" height="500" preserveAspectRatio="xMidYMid meet" version="1.0"><defs><g/><clipPath id="cc53d69977"><path d="M 114.332031 92.273438 L 264.332031 92.273438 L 264.332031 216 L 114.332031 216 Z M 114.332031 92.273438 " clip-rule="nonzero"/></clipPath></defs><g clip-path="url(#cc53d69977)"><path fill="#ffffff" d="M 158.277344 214.289062 L 181.878906 190.6875 C 183.085938 189.480469 185.050781 189.480469 186.257812 190.6875 L 207.054688 211.484375 C 209.296875 213.722656 212.941406 213.722656 215.183594 211.484375 L 222.414062 204.253906 C 223.496094 203.167969 224.09375 201.726562 224.09375 200.1875 C 224.09375 198.652344 223.496094 197.210938 222.414062 196.125 L 188.132812 161.847656 C 185.890625 159.605469 182.246094 159.605469 180.003906 161.847656 L 142.917969 198.933594 C 140.679688 201.171875 140.679688 204.820312 142.917969 207.0625 L 150.148438 214.289062 C 151.269531 215.410156 152.738281 215.96875 154.210938 215.96875 C 155.683594 215.96875 157.15625 215.410156 158.277344 214.289062 Z M 255.421875 198.214844 L 262.652344 190.984375 C 263.738281 189.898438 264.332031 188.457031 264.332031 186.921875 C 264.332031 185.386719 263.738281 183.941406 262.652344 182.855469 L 214.886719 135.09375 C 212.644531 132.851562 209 132.851562 206.757812 135.09375 L 199.527344 142.324219 C 197.289062 144.5625 197.289062 148.210938 199.527344 150.449219 L 247.292969 198.214844 C 248.414062 199.335938 249.882812 199.894531 251.359375 199.894531 C 252.828125 199.894531 254.300781 199.335938 255.421875 198.214844 Z M 127.3125 189.074219 C 125.777344 189.074219 124.332031 188.476562 123.246094 187.390625 L 116.019531 180.160156 C 114.933594 179.074219 114.335938 177.632812 114.335938 176.097656 C 114.335938 174.5625 114.933594 173.117188 116.019531 172.03125 L 193.527344 94.519531 C 195.769531 92.28125 199.417969 92.28125 201.660156 94.519531 L 208.886719 101.75 C 211.128906 103.992188 211.128906 107.636719 208.886719 109.878906 L 131.375 187.390625 C 130.289062 188.476562 128.847656 189.074219 127.3125 189.074219 " fill-opacity="1" fill-rule="nonzero"/></g><g fill="#ffffff" fill-opacity="1"><g transform="translate(135.673582, 256.475666)"><g><path d="M 14.984375 0 L 14.171875 -2.71875 L 7.421875 -2.71875 L 6.609375 0 L 0.28125 0 L 7.3125 -19.265625 L 14.5 -19.265625 L 21.53125 0 Z M 8.703125 -7.03125 L 12.875 -7.03125 L 10.859375 -13.890625 L 10.75 -13.890625 Z M 8.703125 -7.03125 "/></g></g></g><g fill="#ffffff" fill-opacity="1"><g transform="translate(157.454606, 256.475666)"><g><path d="M 10.15625 -19.59375 C 12.625 -19.59375 14.648438 -19.09375 16.234375 -18.09375 C 17.828125 -17.101562 18.640625 -15.625 18.671875 -13.65625 L 18.671875 -13.328125 L 12.875 -13.328125 L 12.875 -13.4375 C 12.875 -14 12.664062 -14.46875 12.25 -14.84375 C 11.84375 -15.21875 11.222656 -15.40625 10.390625 -15.40625 C 9.566406 -15.40625 8.9375 -15.28125 8.5 -15.03125 C 8.0625 -14.789062 7.84375 -14.492188 7.84375 -14.140625 C 7.84375 -13.640625 8.140625 -13.265625 8.734375 -13.015625 C 9.328125 -12.773438 10.289062 -12.523438 11.625 -12.265625 C 13.164062 -11.941406 14.4375 -11.609375 15.4375 -11.265625 C 16.4375 -10.921875 17.3125 -10.359375 18.0625 -9.578125 C 18.8125 -8.796875 19.191406 -7.734375 19.203125 -6.390625 C 19.203125 -4.109375 18.429688 -2.414062 16.890625 -1.3125 C 15.359375 -0.207031 13.300781 0.34375 10.71875 0.34375 C 7.71875 0.34375 5.378906 -0.160156 3.703125 -1.171875 C 2.035156 -2.179688 1.203125 -3.96875 1.203125 -6.53125 L 7.0625 -6.53125 C 7.0625 -5.550781 7.3125 -4.898438 7.8125 -4.578125 C 8.3125 -4.253906 9.09375 -4.09375 10.15625 -4.09375 C 10.945312 -4.09375 11.597656 -4.175781 12.109375 -4.34375 C 12.617188 -4.507812 12.875 -4.851562 12.875 -5.375 C 12.875 -5.84375 12.585938 -6.191406 12.015625 -6.421875 C 11.453125 -6.660156 10.523438 -6.910156 9.234375 -7.171875 C 7.671875 -7.503906 6.375 -7.851562 5.34375 -8.21875 C 4.320312 -8.582031 3.425781 -9.179688 2.65625 -10.015625 C 1.894531 -10.859375 1.515625 -12 1.515625 -13.4375 C 1.515625 -15.550781 2.328125 -17.101562 3.953125 -18.09375 C 5.585938 -19.09375 7.65625 -19.59375 10.15625 -19.59375 Z M 10.15625 -19.59375 "/></g></g></g><g fill="#ffffff" fill-opacity="1"><g transform="translate(177.667846, 256.475666)"><g><path d="M 13.15625 -14.34375 L 13.15625 0 L 6.96875 0 L 6.96875 -14.34375 L 0.640625 -14.34375 L 0.640625 -19.265625 L 19.453125 -19.265625 L 19.453125 -14.34375 Z M 13.15625 -14.34375 "/></g></g></g><g fill="#ffffff" fill-opacity="1"><g transform="translate(197.881087, 256.475666)"><g><path d="M 20.359375 -13.359375 C 20.359375 -12.179688 20.039062 -11.113281 19.40625 -10.15625 C 18.769531 -9.207031 17.84375 -8.507812 16.625 -8.0625 L 20.921875 0 L 13.96875 0 L 10.5625 -7.03125 L 8.265625 -7.03125 L 8.265625 0 L 2.078125 0 L 2.078125 -19.265625 L 13.859375 -19.265625 C 15.242188 -19.265625 16.425781 -19 17.40625 -18.46875 C 18.382812 -17.9375 19.117188 -17.21875 19.609375 -16.3125 C 20.109375 -15.40625 20.359375 -14.421875 20.359375 -13.359375 Z M 14.0625 -13.109375 C 14.0625 -13.609375 13.890625 -14.023438 13.546875 -14.359375 C 13.210938 -14.703125 12.800781 -14.875 12.3125 -14.875 L 8.265625 -14.875 L 8.265625 -11.3125 L 12.3125 -11.3125 C 12.800781 -11.3125 13.210938 -11.484375 13.546875 -11.828125 C 13.890625 -12.171875 14.0625 -12.597656 14.0625 -13.109375 Z M 14.0625 -13.109375 "/></g></g></g><g fill="#ffffff" fill-opacity="1"><g transform="translate(219.66211, 256.475666)"><g><path d="M 11.640625 -19.59375 C 14.960938 -19.59375 17.53125 -18.742188 19.34375 -17.046875 C 21.15625 -15.347656 22.0625 -12.875 22.0625 -9.625 C 22.0625 -6.382812 21.15625 -3.910156 19.34375 -2.203125 C 17.53125 -0.503906 14.960938 0.34375 11.640625 0.34375 C 8.316406 0.34375 5.753906 -0.5 3.953125 -2.1875 C 2.160156 -3.882812 1.265625 -6.363281 1.265625 -9.625 C 1.265625 -12.894531 2.160156 -15.375 3.953125 -17.0625 C 5.753906 -18.75 8.316406 -19.59375 11.640625 -19.59375 Z M 11.640625 -14.984375 C 10.316406 -14.984375 9.3125 -14.582031 8.625 -13.78125 C 7.9375 -12.976562 7.59375 -11.894531 7.59375 -10.53125 L 7.59375 -8.734375 C 7.59375 -7.367188 7.9375 -6.285156 8.625 -5.484375 C 9.3125 -4.679688 10.316406 -4.28125 11.640625 -4.28125 C 12.972656 -4.28125 13.988281 -4.679688 14.6875 -5.484375 C 15.382812 -6.285156 15.734375 -7.367188 15.734375 -8.734375 L 15.734375 -10.53125 C 15.734375 -11.894531 15.382812 -12.976562 14.6875 -13.78125 C 13.988281 -14.582031 12.972656 -14.984375 11.640625 -14.984375 Z M 11.640625 -14.984375 "/></g></g></g><g fill="#ffffff" fill-opacity="1"><g transform="translate(89.712112, 279.075685)"><g><path d="M 11.234375 -5.8125 C 11.234375 -4.59375 11.007812 -3.535156 10.5625 -2.640625 C 10.113281 -1.742188 9.503906 -1.050781 8.734375 -0.5625 C 7.960938 -0.0820312 7.082031 0.15625 6.09375 0.15625 C 5.101562 0.15625 4.21875 -0.0820312 3.4375 -0.5625 C 2.664062 -1.050781 2.054688 -1.742188 1.609375 -2.640625 C 1.171875 -3.535156 0.953125 -4.59375 0.953125 -5.8125 C 0.953125 -7.039062 1.171875 -8.101562 1.609375 -9 C 2.054688 -9.894531 2.664062 -10.582031 3.4375 -11.0625 C 4.21875 -11.550781 5.101562 -11.796875 6.09375 -11.796875 C 7.082031 -11.796875 7.960938 -11.550781 8.734375 -11.0625 C 9.503906 -10.582031 10.113281 -9.894531 10.5625 -9 C 11.007812 -8.101562 11.234375 -7.039062 11.234375 -5.8125 Z M 9.859375 -5.8125 C 9.859375 -6.820312 9.691406 -7.671875 9.359375 -8.359375 C 9.023438 -9.054688 8.570312 -9.582031 8 -9.9375 C 7.425781 -10.300781 6.789062 -10.484375 6.09375 -10.484375 C 5.382812 -10.484375 4.742188 -10.300781 4.171875 -9.9375 C 3.609375 -9.582031 3.15625 -9.054688 2.8125 -8.359375 C 2.476562 -7.671875 2.3125 -6.820312 2.3125 -5.8125 C 2.3125 -4.8125 2.476562 -3.960938 2.8125 -3.265625 C 3.15625 -2.578125 3.609375 -2.050781 4.171875 -1.6875 C 4.742188 -1.332031 5.382812 -1.15625 6.09375 -1.15625 C 6.789062 -1.15625 7.425781 -1.332031 8 -1.6875 C 8.570312 -2.050781 9.023438 -2.578125 9.359375 -3.265625 C 9.691406 -3.960938 9.859375 -4.8125 9.859375 -5.8125 Z M 9.859375 -5.8125 "/></g></g></g><g fill="#ffffff" fill-opacity="1"><g transform="translate(106.178843, 279.075685)"><g><path d="M 3.515625 0 L 0.34375 -11.640625 L 1.765625 -11.640625 L 4.203125 -2.15625 L 4.3125 -2.15625 L 6.796875 -11.640625 L 8.390625 -11.640625 L 10.859375 -2.15625 L 10.984375 -2.15625 L 13.40625 -11.640625 L 14.84375 -11.640625 L 11.65625 0 L 10.203125 0 L 7.640625 -9.265625 L 7.546875 -9.265625 L 4.984375 0 Z M 3.515625 0 "/></g></g></g><g fill="#ffffff" fill-opacity="1"><g transform="translate(125.644807, 279.075685)"><g><path d="M 10.640625 -11.640625 L 10.640625 0 L 9.265625 0 L 2.9375 -9.140625 L 2.8125 -9.140625 L 2.8125 0 L 1.40625 0 L 1.40625 -11.640625 L 2.765625 -11.640625 L 9.140625 -2.484375 L 9.25 -2.484375 L 9.25 -11.640625 Z M 10.640625 -11.640625 "/></g></g></g><g fill="#ffffff" fill-opacity="1"><g transform="translate(141.975205, 279.075685)"><g/></g></g><g fill="#ffffff" fill-opacity="1"><g transform="translate(150.762058, 279.075685)"><g><path d="M 0.765625 -10.390625 L 0.765625 -11.640625 L 9.5 -11.640625 L 9.5 -10.390625 L 5.84375 -10.390625 L 5.84375 0 L 4.4375 0 L 4.4375 -10.390625 Z M 0.765625 -10.390625 "/></g></g></g><g fill="#ffffff" fill-opacity="1"><g transform="translate(165.320178, 279.075685)"><g><path d="M 1.40625 0 L 1.40625 -11.640625 L 2.8125 -11.640625 L 2.8125 -6.453125 L 9.015625 -6.453125 L 9.015625 -11.640625 L 10.4375 -11.640625 L 10.4375 0 L 9.015625 0 L 9.015625 -5.203125 L 2.8125 -5.203125 L 2.8125 0 Z M 1.40625 0 "/></g></g></g><g fill="#ffffff" fill-opacity="1"><g transform="translate(181.446081, 279.075685)"><g><path d="M 1.40625 0 L 1.40625 -11.640625 L 8.4375 -11.640625 L 8.4375 -10.390625 L 2.8125 -10.390625 L 2.8125 -6.453125 L 8.0625 -6.453125 L 8.0625 -5.203125 L 2.8125 -5.203125 L 2.8125 -1.25 L 8.515625 -1.25 L 8.515625 0 Z M 1.40625 0 "/></g></g></g><g fill="#ffffff" fill-opacity="1"><g transform="translate(195.299828, 279.075685)"><g/></g></g><g fill="#ffffff" fill-opacity="1"><g transform="translate(204.086681, 279.075685)"><g><path d="M 9.359375 -8 C 9.117188 -8.757812 8.71875 -9.363281 8.15625 -9.8125 C 7.59375 -10.257812 6.890625 -10.484375 6.046875 -10.484375 C 5.359375 -10.484375 4.726562 -10.300781 4.15625 -9.9375 C 3.59375 -9.582031 3.144531 -9.054688 2.8125 -8.359375 C 2.476562 -7.671875 2.3125 -6.820312 2.3125 -5.8125 C 2.3125 -4.8125 2.476562 -3.960938 2.8125 -3.265625 C 3.15625 -2.578125 3.613281 -2.050781 4.1875 -1.6875 C 4.769531 -1.332031 5.421875 -1.15625 6.140625 -1.15625 C 6.796875 -1.15625 7.375 -1.296875 7.875 -1.578125 C 8.382812 -1.859375 8.78125 -2.25 9.0625 -2.75 C 9.351562 -3.257812 9.503906 -3.863281 9.515625 -4.5625 L 6.453125 -4.5625 L 6.453125 -5.8125 L 10.890625 -5.8125 L 10.890625 -4.5625 C 10.890625 -3.601562 10.6875 -2.769531 10.28125 -2.0625 C 9.875 -1.351562 9.3125 -0.804688 8.59375 -0.421875 C 7.875 -0.0351562 7.054688 0.15625 6.140625 0.15625 C 5.109375 0.15625 4.203125 -0.0820312 3.421875 -0.5625 C 2.640625 -1.050781 2.03125 -1.742188 1.59375 -2.640625 C 1.164062 -3.535156 0.953125 -4.59375 0.953125 -5.8125 C 0.953125 -7.039062 1.164062 -8.101562 1.59375 -9 C 2.03125 -9.894531 2.632812 -10.582031 3.40625 -11.0625 C 4.175781 -11.550781 5.054688 -11.796875 6.046875 -11.796875 C 6.859375 -11.796875 7.597656 -11.632812 8.265625 -11.3125 C 8.929688 -10.988281 9.488281 -10.539062 9.9375 -9.96875 C 10.382812 -9.40625 10.675781 -8.75 10.8125 -8 Z M 9.359375 -8 "/></g></g></g><g fill="#ffffff" fill-opacity="1"><g transform="translate(220.258028, 279.075685)"><g><path d="M 1.890625 0 L 0.40625 0 L 4.6875 -11.640625 L 6.140625 -11.640625 L 10.40625 0 L 8.9375 0 L 7.765625 -3.296875 L 3.0625 -3.296875 Z M 3.5 -4.546875 L 7.3125 -4.546875 L 5.453125 -9.796875 L 5.359375 -9.796875 Z M 3.5 -4.546875 "/></g></g></g><g fill="#ffffff" fill-opacity="1"><g transform="translate(235.361459, 279.075685)"><g><path d="M 1.40625 0 L 1.40625 -11.640625 L 2.8125 -11.640625 L 2.8125 -1.25 L 8.234375 -1.25 L 8.234375 0 Z M 1.40625 0 "/></g></g></g><g fill="#ffffff" fill-opacity="1"><g transform="translate(248.647167, 279.075685)"><g><path d="M 1.890625 0 L 0.40625 0 L 4.6875 -11.640625 L 6.140625 -11.640625 L 10.40625 0 L 8.9375 0 L 7.765625 -3.296875 L 3.0625 -3.296875 Z M 3.5 -4.546875 L 7.3125 -4.546875 L 5.453125 -9.796875 L 5.359375 -9.796875 Z M 3.5 -4.546875 "/></g></g></g><g fill="#ffffff" fill-opacity="1"><g transform="translate(263.750598, 279.075685)"><g><path d="M 2.09375 -11.640625 L 5.09375 -6.796875 L 5.1875 -6.796875 L 8.1875 -11.640625 L 9.84375 -11.640625 L 6.1875 -5.8125 L 9.84375 0 L 8.1875 0 L 5.1875 -4.75 L 5.09375 -4.75 L 2.09375 0 L 0.4375 0 L 4.1875 -5.8125 L 0.4375 -11.640625 Z M 2.09375 -11.640625 "/></g></g></g><g fill="#ffffff" fill-opacity="1"><g transform="translate(278.308718, 279.075685)"><g><path d="M 0.40625 -11.640625 L 2.015625 -11.640625 L 5.25 -6.203125 L 5.390625 -6.203125 L 8.609375 -11.640625 L 10.234375 -11.640625 L 6.015625 -4.796875 L 6.015625 0 L 4.609375 0 L 4.609375 -4.796875 Z M 0.40625 -11.640625 "/></g></g></g></svg>