<svg xmlns="http://www.w3.org/2000/svg" xmlns:xlink="http://www.w3.org/1999/xlink" width="500" zoomAndPan="magnify" viewBox="0 0 375 374.999991" height="500" preserveAspectRatio="xMidYMid meet" version="1.0"><defs><clipPath id="0c42120ebd"><path d="M 7.039062 38 L 367.789062 38 L 367.789062 335.25 L 7.039062 335.25 Z M 7.039062 38 " clip-rule="nonzero"/></clipPath></defs><g clip-path="url(#0c42120ebd)"><path fill="#ffffff" d="M 112.769531 331.082031 L 169.558594 274.292969 C 172.464844 271.382812 177.191406 271.386719 180.097656 274.292969 L 230.136719 324.332031 C 235.527344 329.722656 244.300781 329.722656 249.691406 324.332031 L 267.085938 306.9375 C 269.699219 304.324219 271.136719 300.851562 271.136719 297.15625 C 271.136719 293.460938 269.699219 289.988281 267.085938 287.375 L 184.605469 204.898438 C 179.214844 199.507812 170.441406 199.507812 165.050781 204.898438 L 75.816406 294.128906 C 70.425781 299.523438 70.425781 308.296875 75.816406 313.691406 L 93.210938 331.082031 C 95.90625 333.777344 99.449219 335.125 102.988281 335.125 C 106.53125 335.125 110.074219 333.777344 112.769531 331.082031 Z M 346.507812 292.40625 L 363.902344 275.011719 C 366.515625 272.398438 367.953125 268.921875 367.953125 265.234375 C 367.953125 261.539062 366.515625 258.0625 363.902344 255.449219 L 248.980469 140.527344 C 243.585938 135.132812 234.816406 135.132812 229.417969 140.527344 L 212.027344 157.921875 C 206.636719 163.3125 206.636719 172.085938 212.027344 177.476562 L 326.953125 292.40625 C 329.648438 295.101562 333.1875 296.449219 336.730469 296.449219 C 340.269531 296.449219 343.8125 295.101562 346.507812 292.40625 Z M 38.265625 270.40625 C 34.570312 270.40625 31.097656 268.96875 28.484375 266.355469 L 11.09375 248.964844 C 8.480469 246.351562 7.042969 242.878906 7.042969 239.1875 C 7.042969 235.492188 8.480469 232.019531 11.09375 229.40625 L 197.589844 42.910156 C 202.980469 37.515625 211.757812 37.515625 217.152344 42.910156 L 234.539062 60.304688 C 239.933594 65.695312 239.933594 74.46875 234.539062 79.859375 L 48.046875 266.355469 C 45.433594 268.96875 41.960938 270.40625 38.265625 270.40625 " fill-opacity="1" fill-rule="nonzero"/></g></svg>